<?xml version="1.0" encoding="iso-8859-1"?>
<!-- Uploaded to: SVG Repo, www.svgrepo.com, Generator: SVG Repo Mixer Tools -->
<svg height="800px" width="800px" version="1.1" id="Layer_1" xmlns="http://www.w3.org/2000/svg" xmlns:xlink="http://www.w3.org/1999/xlink" 
	 viewBox="0 0 512 512" xml:space="preserve">
<g transform="translate(1 1)">
	<path style="fill:#FFFFFF;" d="M92.867,459.8v-42.667v-204.8V24.6c0-9.387,7.68-17.067,17.067-17.067h281.6
		c9.387,0,17.067,7.68,17.067,17.067v460.8c0,9.387-7.68,17.067-17.067,17.067H50.2C74.093,502.467,92.867,483.693,92.867,459.8"/>
	<path style="fill:#FFA800;" d="M186.733,459.8v-42.667v-204.8V24.6c0-9.387,7.68-17.067,17.067-17.067h281.6
		c9.387,0,17.067,7.68,17.067,17.067v460.8c0,9.387-7.68,17.067-17.067,17.067H144.067
		C167.96,502.467,186.733,483.693,186.733,459.8"/>
	<path style="fill:#FFE100;" d="M118.467,459.8v-42.667v-204.8V24.6c0-9.387,7.68-17.067,17.067-17.067H459.8
		c9.387,0,17.067,7.68,17.067,17.067v460.8c0,9.387-7.68,17.067-17.067,17.067h-384C99.693,502.467,118.467,483.693,118.467,459.8"
		/>
	<path style="fill:#FFFFFF;" d="M50.2,502.467L50.2,502.467c23.893,0,42.667-18.773,42.667-42.667V280.6H24.6
		c-9.387,0-17.067,7.68-17.067,17.067V459.8C7.533,483.693,26.307,502.467,50.2,502.467"/>
	<polygon style="fill:#00AD55;" points="135.533,203.8 289.133,203.8 289.133,50.2 135.533,50.2 	"/>
	<polygon style="fill:#00DA6C;" points="135.533,203.8 263.533,203.8 263.533,50.2 135.533,50.2 	"/>
	<path style="fill:#FFE100;" d="M63,502.467L63,502.467c16.213,0,29.867-18.773,29.867-42.667V280.6H45.08
		c-6.827,0-11.947,7.68-11.947,17.067V459.8C33.133,483.693,46.787,502.467,63,502.467"/>
	<polygon style="fill:#3DB9F9;" points="340.333,459.8 459.8,459.8 459.8,50.2 340.333,50.2 	"/>
	<polygon style="fill:#63D3FD;" points="340.333,459.8 434.2,459.8 434.2,50.2 340.333,50.2 	"/>
	<path d="M50.2,511C22.04,511-1,487.96-1,459.8V280.6c0-5.12,3.413-8.533,8.533-8.533h85.333c5.12,0,8.533,3.413,8.533,8.533v179.2
		C101.4,487.96,78.36,511,50.2,511z M16.067,289.133V459.8c0,18.773,15.36,34.133,34.133,34.133s34.133-15.36,34.133-34.133V289.133
		H16.067z"/>
	<path d="M459.8,511H50.2c-5.12,0-8.533-3.413-8.533-8.533c0-5.12,3.413-8.533,8.533-8.533c18.773,0,34.133-15.36,34.133-34.133
		V24.6c0-14.507,11.093-25.6,25.6-25.6H485.4C499.907-1,511,10.093,511,24.6v435.2C511,487.96,487.96,511,459.8,511z M88.6,493.933
		h371.2c18.773,0,34.133-15.36,34.133-34.133V24.6c0-5.12-3.413-8.533-8.533-8.533H109.933c-5.12,0-8.533,3.413-8.533,8.533v435.2
		C101.4,472.6,96.28,484.547,88.6,493.933z"/>
	<path d="M289.133,212.333h-153.6c-5.12,0-8.533-3.413-8.533-8.533V50.2c0-5.12,3.413-8.533,8.533-8.533h153.6
		c5.12,0,8.533,3.413,8.533,8.533v153.6C297.667,208.92,294.253,212.333,289.133,212.333z M144.067,195.267H280.6V58.733H144.067
		V195.267z"/>
	<path d="M459.8,468.333H340.333c-5.12,0-8.533-3.413-8.533-8.533V50.2c0-5.12,3.413-8.533,8.533-8.533H459.8
		c5.12,0,8.533,3.413,8.533,8.533v409.6C468.333,464.92,464.92,468.333,459.8,468.333z M348.867,451.267h102.4V58.733h-102.4
		V451.267z"/>
	<path d="M297.667,255H135.533c-5.12,0-8.533-3.413-8.533-8.533c0-5.12,3.413-8.533,8.533-8.533h162.133
		c5.12,0,8.533,3.413,8.533,8.533C306.2,251.587,302.787,255,297.667,255z"/>
	<path d="M297.667,297.667H135.533c-5.12,0-8.533-3.413-8.533-8.533c0-5.12,3.413-8.533,8.533-8.533h162.133
		c5.12,0,8.533,3.413,8.533,8.533C306.2,294.253,302.787,297.667,297.667,297.667z"/>
	<path d="M297.667,340.333H135.533c-5.12,0-8.533-3.413-8.533-8.533s3.413-8.533,8.533-8.533h162.133
		c5.12,0,8.533,3.413,8.533,8.533S302.787,340.333,297.667,340.333z"/>
	<path d="M297.667,383H135.533c-5.12,0-8.533-3.413-8.533-8.533c0-5.12,3.413-8.533,8.533-8.533h162.133
		c5.12,0,8.533,3.413,8.533,8.533C306.2,379.587,302.787,383,297.667,383z"/>
	<path d="M297.667,425.667H135.533c-5.12,0-8.533-3.413-8.533-8.533s3.413-8.533,8.533-8.533h162.133
		c5.12,0,8.533,3.413,8.533,8.533S302.787,425.667,297.667,425.667z"/>
	<path d="M297.667,468.333H135.533c-5.12,0-8.533-3.413-8.533-8.533s3.413-8.533,8.533-8.533h162.133
		c5.12,0,8.533,3.413,8.533,8.533S302.787,468.333,297.667,468.333z"/>
	<path d="M417.133,109.933H383c-5.12,0-8.533-3.413-8.533-8.533c0-5.12,3.413-8.533,8.533-8.533h34.133
		c5.12,0,8.533,3.413,8.533,8.533C425.667,106.52,422.253,109.933,417.133,109.933z"/>
	<path d="M417.133,152.6H383c-5.12,0-8.533-3.413-8.533-8.533c0-5.12,3.413-8.533,8.533-8.533h34.133
		c5.12,0,8.533,3.413,8.533,8.533C425.667,149.187,422.253,152.6,417.133,152.6z"/>
	<path d="M417.133,195.267H383c-5.12,0-8.533-3.413-8.533-8.533c0-5.12,3.413-8.533,8.533-8.533h34.133
		c5.12,0,8.533,3.413,8.533,8.533C425.667,191.853,422.253,195.267,417.133,195.267z"/>
	<path d="M417.133,237.933H383c-5.12,0-8.533-3.413-8.533-8.533c0-5.12,3.413-8.533,8.533-8.533h34.133
		c5.12,0,8.533,3.413,8.533,8.533C425.667,234.52,422.253,237.933,417.133,237.933z"/>
	<path d="M417.133,280.6H383c-5.12,0-8.533-3.413-8.533-8.533s3.413-8.533,8.533-8.533h34.133c5.12,0,8.533,3.413,8.533,8.533
		S422.253,280.6,417.133,280.6z"/>
	<path d="M417.133,323.267H383c-5.12,0-8.533-3.413-8.533-8.533c0-5.12,3.413-8.533,8.533-8.533h34.133
		c5.12,0,8.533,3.413,8.533,8.533C425.667,319.853,422.253,323.267,417.133,323.267z"/>
	<path d="M417.133,365.933H383c-5.12,0-8.533-3.413-8.533-8.533s3.413-8.533,8.533-8.533h34.133c5.12,0,8.533,3.413,8.533,8.533
		S422.253,365.933,417.133,365.933z"/>
	<path d="M417.133,408.6H383c-5.12,0-8.533-3.413-8.533-8.533s3.413-8.533,8.533-8.533h34.133c5.12,0,8.533,3.413,8.533,8.533
		S422.253,408.6,417.133,408.6z"/>
</g>
</svg>